# xmcd CD database file
#
# Track frame offsets:
#	150
#	2485
#	33798
#	74821
#	113091
#	150355
#	160952
#	191158
#	218373
#	270450
#	312049
#	334025
#
# Disc length: 4525 seconds
#
# Revision: 0
# Processed by: cddbd v1.5.2PL0 Copyright (c) Steve Scherf et al.
# Submitted via: CDex 1.51
#
DISCID=9411ab0c
DTITLE=Miles Davis - Winter in Europe 1967
DYEAR=1900
DGENRE=Jazz
TTITLE0=01 - Miles Davis - Introduction
TTITLE1=02 - Miles Davis - Agitation
TTITLE2=03 - Miles Davis - Footprints
TTITLE3=04 - Miles Davis - Around midnight
TTITLE4=05 - Miles Davis - Gingerbread Boy into the theme
TTITLE5=06 - Miles Davis - Introduction
TTITLE6=07 - Miles Davis - Agitation
TTITLE7=08 - Miles Davis - Footprints
TTITLE8=09 - Miles Davis - I fall in love too easily
TTITLE9=10 - Miles Davis - Walkin'
TTITLE10=11 - Miles Davis - Gingerbread Boy
TTITLE11=12 - Miles Davis - The theme
EXTD=
EXTT0=
EXTT1=
EXTT2=
EXTT3=
EXTT4=
EXTT5=
EXTT6=
EXTT7=
EXTT8=
EXTT9=
EXTT10=
EXTT11=
PLAYORDER=
